<svg width="64" height="64" viewBox="0 0 64 64" fill="none" xmlns="http://www.w3.org/2000/svg">
<path d="M44.7998 0C51.5204 0 54.8813 -0.00030458 57.4482 1.30762C59.7061 2.4581 61.5419 4.29391 62.6924 6.55176C64.0003 9.1187 64 12.4796 64 19.2002V22.3447L51.8037 26.0576C50.2057 26.5441 48.5285 25.579 48.1523 23.957L43.8086 5.22559C43.1205 2.25829 38.8795 2.25829 38.1914 5.22559L33.8477 23.957C33.4715 25.579 31.7943 26.5441 30.1963 26.0576L11.7412 20.4395C8.81778 19.5495 6.69727 23.2088 8.93262 25.2861L23.0439 38.3994C24.2657 39.5348 24.2655 41.4641 23.0439 42.5996L8.93262 55.7139C6.69727 57.7912 8.81778 61.4505 11.7412 60.5605L30.1963 54.9424C31.7942 54.4559 33.4714 55.4202 33.8477 57.042L35.4609 64H19.2002C12.4796 64 9.1187 64.0003 6.55176 62.6924C4.29394 61.5419 2.45809 59.706 1.30762 57.4482C-0.00030458 54.8813 0 51.5204 0 44.7998V19.2002C0 12.4796 -0.00030458 9.1187 1.30762 6.55176C2.45807 4.29391 4.29392 2.45809 6.55176 1.30762C9.1187 -0.00030458 12.4796 0 19.2002 0H44.7998ZM48.1523 57.042C48.5286 55.4202 50.2058 54.4559 51.8037 54.9424L62.3076 58.1396C61.1517 60.0803 59.4704 61.662 57.4482 62.6924C55.1129 63.8823 52.1206 63.9874 46.5391 63.9971L48.1523 57.042ZM64 44.7998C64 45.6838 63.9991 46.5097 63.9961 47.2832L58.9561 42.5996C57.7344 41.4641 57.7343 39.5348 58.9561 38.3994L64 33.7119V44.7998Z" fill="#80F906"/>
</svg>
