<svg width="238" height="32" viewBox="0 0 238 32" fill="none" xmlns="http://www.w3.org/2000/svg">
<path d="M237.048 30.38H230.118L225.288 21.63H215.803V30.38H208.838V0.980011H224.273C232.148 0.980011 236.313 4.65501 236.313 11.515C236.313 15.61 234.318 18.585 231.308 20.23L237.048 30.38ZM215.803 6.82501V16.275H223.888C227.423 16.275 229.383 14.665 229.383 11.55C229.383 8.43501 227.423 6.82501 223.888 6.82501H215.803Z" fill="#86F998"/>
<path d="M199.24 30.38L197.42 25.445H182.93L181.11 30.38H173.9L185.275 0.980011H195.075L206.485 30.38H199.24ZM184.89 20.16H195.46L190.84 7.59501H189.51L184.89 20.16Z" fill="#86F998"/>
<path d="M177.694 0.980011V6.82501H166.669V30.38H159.669V6.82501H148.679V0.980011H177.694Z" fill="#86F998"/>
<path d="M133.657 31.36C124.697 31.36 119.972 28.175 120.007 21.28H126.307C126.552 24.045 128.827 25.795 133.657 25.83C138.207 25.83 140.692 24.29 140.692 21.98C140.692 19.95 139.047 18.935 135.547 18.34L131.907 17.71C126.342 16.73 120.812 15.26 120.812 8.855C120.812 3.29 125.502 0 133.727 0C141.392 0 146.712 2.695 146.782 9.975H140.517C140.062 7.315 137.997 5.53 133.587 5.53C129.597 5.53 127.497 6.895 127.497 9.17C127.497 10.955 128.932 12.075 131.942 12.635L135.127 13.195C140.727 14.21 147.622 15.155 147.622 22.19C147.622 28.035 142.827 31.36 133.657 31.36Z" fill="#86F998"/>
<path d="M92.6428 30.38V0.980011H117.388V6.68501H99.6078V13.125H116.758V18.165H99.6078V24.64H117.388V30.38H92.6428Z" fill="#86F998"/>
<path d="M73.8637 0.980011C85.2737 0.980011 89.6137 7.31501 89.6137 15.68C89.6137 24.045 85.2737 30.38 73.8637 30.38H60.3537V0.980011H73.8637ZM73.8287 24.5C79.5337 24.5 82.6137 21.35 82.6137 15.68C82.6137 10.01 79.5337 6.86001 73.8287 6.86001H67.3887L67.3187 24.5H73.8287Z" fill="#86F998"/>
<path d="M41.2956 31.36C31.7056 31.36 25.1606 24.92 25.1606 15.68C25.1606 6.44 31.7056 0 41.2956 0C50.9206 0 57.4656 6.44 57.4656 15.68C57.4656 24.92 50.9206 31.36 41.2956 31.36ZM41.2956 25.305C46.5456 25.305 50.5356 21.455 50.5356 15.68C50.5356 9.905 46.5456 6.055 41.2956 6.055C36.0806 6.055 32.0556 9.905 32.0556 15.68C32.0556 21.455 36.0806 25.305 41.2956 25.305Z" fill="#86F998"/>
<path d="M0 30.38V0.980011H6.965V24.535H23.905V30.38H0Z" fill="#86F998"/>
</svg>
